<svg width="24" height="21" viewBox="0 0 24 21" fill="none" xmlns="http://www.w3.org/2000/svg">
<path d="M23.0526 3.49998L17.5885 2.03588L19.0885 4.63396L11.2942 9.13396L12.2942 10.866L20.0885 6.36601L21.5885 8.96408M7 19.6961L1 9.30383C0.445 8.34254 0.779423 7.12178 1.73205 6.57178L12.1244 0.571777C12.5837 0.306561 13.1296 0.23469 13.642 0.371977C14.1544 0.509263 14.5912 0.84446 14.8564 1.30383L16.3564 3.9019L14.6244 4.9019L13.1244 2.30383L2.73205 8.30383L8.73205 18.6961L19.1244 12.6961L17.6244 10.0981L19.3564 9.09806L20.8564 11.6961C21.1216 12.1555 21.1935 12.7014 21.0562 13.2138C20.9189 13.7261 20.5837 14.163 20.1244 14.4282L9.73205 20.4282C9.27268 20.6934 8.72677 20.7653 8.21441 20.628C7.70205 20.4907 7.26522 20.1555 7 19.6961Z" fill="url(#paint0_linear_2089_687)"/>
<defs>
<linearGradient id="paint0_linear_2089_687" x1="13.9167" y1="-0.463007" x2="4.07056" y2="9.53839" gradientUnits="userSpaceOnUse">
<stop stop-color="#87B8FF"/>
<stop offset="1" stop-color="#4490F9"/>
</linearGradient>
</defs>
</svg>
